<svg xmlns="http://www.w3.org/2000/svg" viewBox="0 0 120 120" width="120" height="120">
  <!-- 둥근 배경 -->
  <circle cx="60" cy="60" r="56" fill="#EFF6F1" stroke="#D0E4D6" stroke-width="2"/>

  <!-- 책/기록 모티프 -->
  <rect x="38" y="35" width="44" height="50" rx="4" fill="#FFFFFF" stroke="#4A8C6F" stroke-width="2.5"/>
  <rect x="42" y="35" width="2" height="50" fill="#4A8C6F" opacity="0.3"/>

  <!-- 줄 (기록 라인) -->
  <line x1="50" y1="48" x2="74" y2="48" stroke="#D0E4D6" stroke-width="2" stroke-linecap="round"/>
  <line x1="50" y1="56" x2="70" y2="56" stroke="#D0E4D6" stroke-width="2" stroke-linecap="round"/>
  <line x1="50" y1="64" x2="68" y2="64" stroke="#D0E4D6" stroke-width="2" stroke-linecap="round"/>

  <!-- 잎사귀 (플랜테리어 포인트) -->
  <path d="M72 30 C72 30, 82 18, 88 24 C94 30, 82 36, 72 30Z" fill="#4A8C6F" opacity="0.85"/>
  <path d="M76 34 C76 34, 84 24, 89 28" stroke="#3A7A5E" stroke-width="1" fill="none" stroke-linecap="round"/>

  <!-- 작은 잎 -->
  <path d="M78 36 C78 36, 84 30, 86 34 C88 38, 82 38, 78 36Z" fill="#6AAF8D" opacity="0.7"/>

  <!-- 하트 (가족 사랑) -->
  <path d="M56 72 C56 70, 54 68, 52 68 C49 68, 48 71, 52 74 L56 78 L60 74 C64 71, 63 68, 60 68 C58 68, 56 70, 56 72Z" fill="#4A8C6F" opacity="0.6"/>
</svg>
